<?xml version="1.0" encoding="UTF-8"?>
<!DOCTYPE svg PUBLIC "-//W3C//DTD SVG 1.1//EN" "http://www.w3.org/Graphics/SVG/1.1/DTD/svg11.dtd">
<svg xmlns="http://www.w3.org/2000/svg" version="1.1" width="1024px" height="1536px" style="shape-rendering:geometricPrecision; text-rendering:geometricPrecision; image-rendering:optimizeQuality; fill-rule:evenodd; clip-rule:evenodd" xmlns:xlink="http://www.w3.org/1999/xlink">
<g><path style="opacity:1" fill="#fefefe" d="M -0.5,-0.5 C 340.833,-0.5 682.167,-0.5 1023.5,-0.5C 1023.5,511.5 1023.5,1023.5 1023.5,1535.5C 682.167,1535.5 340.833,1535.5 -0.5,1535.5C -0.5,1023.5 -0.5,511.5 -0.5,-0.5 Z"/></g>
<g><path style="opacity:1" fill="#0c0c0c" d="M 458.5,415.5 C 463.106,416.637 465.94,419.637 467,424.5C 468.194,431.521 467.194,438.187 464,444.5C 422.306,487.527 379.973,529.86 337,571.5C 334.683,574.468 333.183,577.801 332.5,581.5C 332.577,583.299 333.077,584.966 334,586.5C 394.833,647.333 455.667,708.167 516.5,769C 517.167,769.667 517.833,769.667 518.5,769C 579.042,708.959 639.042,648.459 698.5,587.5C 643.486,532.319 588.653,476.986 534,421.5C 532.967,418.783 533.8,416.949 536.5,416C 543.833,415.333 551.167,415.333 558.5,416C 560.246,416.471 561.913,417.138 563.5,418C 679.081,534.914 795.248,651.081 912,766.5C 912.635,767.966 913.469,769.3 914.5,770.5C 913.687,771.814 912.687,772.981 911.5,774C 903.881,775.429 896.215,775.762 888.5,775C 886.5,773.667 884.5,772.333 882.5,771C 827.333,715.833 772.167,660.667 717,605.5C 656.626,666.041 596.126,726.374 535.5,786.5C 592.153,843.653 648.986,900.653 706,957.5C 706.711,959.367 706.211,960.867 704.5,962C 694.795,963.945 685.128,963.945 675.5,962C 622.681,910.014 570.014,857.847 517.5,805.5C 470.014,852.486 422.68,899.653 375.5,947C 345.667,973.274 314.333,975.274 281.5,953C 270.898,940.892 264.731,926.725 263,910.5C 255.376,849.475 273.876,798.142 318.5,756.5C 327.392,762.676 330.226,771.009 327,781.5C 306.754,805.329 293.42,832.662 287,863.5C 285.022,878.497 285.022,893.497 287,908.5C 293.583,938.713 311.75,949.213 341.5,940C 348.382,936.448 354.716,932.115 360.5,927C 406.403,880.429 452.403,833.762 498.5,787C 439.153,725.32 378.82,664.653 317.5,605C 314.167,604.333 310.833,604.333 307.5,605C 303.89,606.944 300.557,609.277 297.5,612C 243.806,665.361 190.472,719.027 137.5,773C 129.982,775.941 122.315,776.274 114.5,774C 109.486,772.788 108.319,769.955 111,765.5C 119.667,756.167 128.333,746.833 137,737.5C 241.415,632.752 346.081,528.418 451,424.5C 453.335,421.335 455.835,418.335 458.5,415.5 Z"/></g>
</svg>
